<?xml version="1.0" encoding="UTF-8"?>
<svg id="Layer_1" data-name="Layer 1" xmlns="http://www.w3.org/2000/svg" width="100" height="100" viewBox="0 0 100 100">
  <defs>
    <style>
      .cls-1 {
        fill: #fff;
      }
    </style>
  </defs>
  <path class="cls-1" d="M74.5,50.555h0l-73.446-.055c-.276,0-.499-.224-.5-.5L.5,2.261c0-.133,.053-.26,.147-.354,.094-.093,.221-.146,.353-.146h.001l56.235,.165c.276,0,.5,.225,.499,.501,0,.275-.225,.499-.5,.499h0L1.5,2.762l.054,46.738,72.446,.054V19.546c0-.276,.224-.5,.5-.5s.5,.224,.5,.5v30.509c0,.133-.053,.26-.146,.354s-.221,.146-.354,.146Z"/>
  <g>
    <polygon class="cls-1" points="22.742 32.608 1.164 32.79 1.055 50 25.5 49.945 25.5 29.85 22.742 32.608"/>
    <path class="cls-1" d="M1.055,50.5c-.133,0-.26-.053-.354-.147-.094-.095-.146-.223-.146-.356l.11-17.21c.002-.273,.223-.494,.496-.497l21.373-.18,2.613-2.613c.144-.143,.357-.187,.545-.108,.187,.077,.309,.26,.309,.462v20.095c0,.276-.223,.5-.499,.5l-24.445,.055h0Zm.607-17.215l-.104,16.214,23.442-.053V31.057l-1.904,1.904c-.093,.093-.218,.146-.349,.146l-21.085,.177Zm21.081-.677h0Z"/>
  </g>
  <path class="cls-1" d="M50.445,50.445H25V25h20.145l5.301,5.301v20.145Zm-24.445-1h23.445V30.715l-4.715-4.715H26v23.445Z"/>
  <path class="cls-1" d="M25.5,98.239c-.132,0-.259-.053-.353-.146-.094-.094-.147-.221-.147-.354l.055-47.739c0-.276,.224-.5,.5-.5l73.446-.055h0c.133,0,.26,.053,.354,.146s.146,.221,.146,.354v30.509c0,.134-.054,.261-.147,.355l-17.265,17.121c-.094,.092-.22,.145-.352,.145l-56.235,.164h-.001Zm.554-47.74l-.054,46.739,55.529-.162,16.971-16.83v-29.8l-72.446,.054Zm72.946,29.955h0Z"/>
  <g>
    <polygon class="cls-1" points="25.555 50 25.555 74.5 50 74.5 50 50.055 74.445 50.055 74.445 69.492 69.437 74.5 99 74.5 99 50 25.555 50"/>
    <path class="cls-1" d="M99,75h-29.562c-.202,0-.385-.122-.462-.309s-.034-.402,.108-.545l4.861-4.861v-18.73h-23.445v23.945c0,.276-.224,.5-.5,.5H25.555c-.276,0-.5-.224-.5-.5v-24.5c0-.276,.224-.5,.5-.5H99c.276,0,.5,.224,.5,.5v24.5c0,.276-.224,.5-.5,.5Zm-28.355-1h27.855v-23.5h-23.555v18.992c0,.133-.053,.26-.146,.354l-4.154,4.154Zm-44.59,0h23.445v-23.5H26.055v23.5Z"/>
  </g>
  <g>
    <path class="cls-1" d="M59.878,15.324c-.799,0-1.446-.647-1.446-1.446s.647-1.446,1.446-1.446h7.448l-2.917-2.892-2.917-2.892-4.258-4.222-24.754-.072,10.304,10.212-12.935,12.935h15.087l5.008,5.008v19.437l24.555,.11V19.546l-4.258-4.222h-10.364Z"/>
    <path class="cls-1" d="M74.5,50.555h-.002l-24.555-.109c-.275-.001-.498-.225-.498-.5V30.715l-4.715-4.715h-14.88c-.202,0-.385-.122-.462-.309-.078-.187-.035-.402,.108-.545l12.58-12.58L32.129,2.708c-.144-.143-.188-.358-.11-.546,.077-.187,.26-.309,.462-.309h.001l24.755,.073c.131,0,.257,.052,.351,.145l10.09,10.006c.145,.143,.188,.358,.11,.545s-.26,.31-.462,.31h-7.448c-.521,0-.946,.424-.946,.946s.425,.946,.946,.946h10.364c.132,0,.259,.052,.353,.145l4.258,4.222c.094,.094,.147,.222,.147,.355v30.509c0,.133-.053,.261-.147,.354-.094,.093-.221,.146-.353,.146Zm-24.055-1.107l23.555,.104V19.754l-3.964-3.931h-10.158c-1.073,0-1.946-.873-1.946-1.946s.873-1.946,1.946-1.946h6.233L57.029,2.925l-23.33-.069,9.438,9.354c.094,.093,.147,.221,.148,.354,0,.133-.052,.26-.146,.354l-12.082,12.082h13.88c.133,0,.26,.053,.354,.146l5.008,5.008c.094,.094,.146,.221,.146,.354v18.94Z"/>
  </g>
  <path class="cls-1" d="M75.37,12.596h-5.329l2.585,2.563h2.744c.707,0,1.282-.575,1.282-1.282s-.575-1.282-1.282-1.282Z"/>
  <path class="cls-1" d="M75.37,6.812h-11.162l2.585,2.563h8.577c.707,0,1.282-.575,1.282-1.282s-.575-1.282-1.282-1.282Z"/>
  <path class="cls-1" d="M69.438,75h-19.438c-.276,0-.5-.224-.5-.5v-24.445c0-.276,.224-.5,.5-.5h24.445c.276,0,.5,.224,.5,.5v19.438c0,.133-.053,.26-.146,.354l-5.008,5.008c-.094,.094-.221,.146-.354,.146Zm-18.938-1h18.73l4.715-4.715v-18.73h-23.445v23.445Z"/>
</svg>