<svg id="Layer_1" data-name="Layer 1" xmlns="http://www.w3.org/2000/svg" viewBox="0 0 89.22 100"><defs><style>.cls-1{fill:#fff;}</style></defs><path class="cls-1" d="M89.18,75.54a46.7,46.7,0,0,0,2-4.79,9.57,9.57,0,0,0,.39-1.17c.15-.47.29-.93.43-1.4.34-1.23.62-2.47.84-3.73l.21-1.25c0-.17.06-.35.08-.52a21.88,21.88,0,0,0,.36-2.77l.1-2.81a42,42,0,0,0-.9-9.44c.66-6.56,1.17-13.11,1.55-19.69.17-3.42.32-6.84.34-10.26A88.8,88.8,0,0,0,94.16,7.4a18.61,18.61,0,0,0-1.23-5.2l-.33-.67L92.17.9A4.22,4.22,0,0,0,91.5.37,4,4,0,0,0,90.67,0a5,5,0,0,0-3,.55,26.36,26.36,0,0,0-8,6.81,118.58,118.58,0,0,0-9,12,46.48,46.48,0,0,0-6.61-2.74A44.88,44.88,0,0,0,50,14.23a44.89,44.89,0,0,0-14.11,2.48,47.33,47.33,0,0,0-6.59,2.72,120.41,120.41,0,0,0-9-12,26.42,26.42,0,0,0-8-6.81,5,5,0,0,0-3-.55A4.22,4.22,0,0,0,8.56.4a4.29,4.29,0,0,0-.68.53l-.48.64-.33.66a17.93,17.93,0,0,0-1.23,5.2A89.05,89.05,0,0,0,5.4,17.76c0,3.42.17,6.84.34,10.26.38,6.66.9,13.28,1.57,19.92A43.28,43.28,0,0,0,7,63.28c.11.63.11.66.22,1.26a42.46,42.46,0,0,0,1.24,5c.17.51.18.59.39,1.19a44.58,44.58,0,0,0,2,4.91,6.37,6.37,0,0,0,.56,1.09A42.94,42.94,0,0,0,28.34,94.16,44.92,44.92,0,0,0,50,100a45,45,0,0,0,21.64-5.84A43.07,43.07,0,0,0,87.59,78.49c.36-.61.7-1.23,1-1.86" transform="translate(-5.39 0)"/></svg>