<?xml version="1.0" encoding="utf-8"?>
<!-- Generator: Adobe Illustrator 25.2.1, SVG Export Plug-In . SVG Version: 6.00 Build 0)  -->
<svg version="1.1" id="Layer_1" xmlns="http://www.w3.org/2000/svg" xmlns:xlink="http://www.w3.org/1999/xlink" x="0px" y="0px"
	 viewBox="0 0 100 100" style="enable-background:new 0 0 100 100;" xml:space="preserve">
<style type="text/css">
	.st0{fill:#FFFFFF;}
</style>
<path class="st0" d="M88.26,29.97c-11,0-20-9-20-20V0h-43.3c-11,0-20,9-20,20v60c0,11,9,20,20,20h50.08c11,0,20-9,20-20V29.97H88.26
	z M84.44,84.07c-0.84,0.84-2,1.36-3.28,1.36H18.84c-2.55,0-4.64-2.09-4.64-4.64c0-1.27,0.52-2.43,1.36-3.27
	c0.84-0.84,2-1.36,3.28-1.36h62.32c2.55,0,4.64,2.08,4.64,4.63C85.8,82.06,85.28,83.22,84.44,84.07z M84.44,64.88
	c-0.84,0.84-2,1.36-3.28,1.36H18.84c-2.55,0-4.64-2.09-4.64-4.64c0-1.27,0.52-2.43,1.36-3.27c0.84-0.84,2-1.36,3.28-1.36h62.32
	c2.55,0,4.64,2.09,4.64,4.63C85.8,62.88,85.28,64.04,84.44,64.88z M84.44,45.69c-0.84,0.84-2,1.36-3.28,1.36H18.84
	c-2.55,0-4.64-2.08-4.64-4.63c0-1.28,0.52-2.44,1.36-3.28c0.84-0.84,2-1.36,3.28-1.36h62.32c2.55,0,4.64,2.09,4.64,4.64
	C85.8,43.7,85.28,44.85,84.44,45.69z"/>
</svg>
