<svg id="Layer_1" data-name="Layer 1" xmlns="http://www.w3.org/2000/svg" viewBox="0 0 31.84 40"><defs><style>.cls-1{fill:#fff;}</style></defs><path class="cls-1" d="M33.79,35.74H22.13V31.39A12.69,12.69,0,0,0,32.69,18.88a2.13,2.13,0,0,0-4.26,0h0A8.43,8.43,0,0,1,22.13,27V25.52a6.26,6.26,0,0,0,5.19-6.15V6.24A6.25,6.25,0,0,0,21.08,0H18.92a6.25,6.25,0,0,0-6.24,6.24V19.37a6.26,6.26,0,0,0,5.19,6.15V27a8.43,8.43,0,0,1-6.3-8.15h0a2.13,2.13,0,0,0-4.26,0A12.69,12.69,0,0,0,17.87,31.39v4.35H6.21a2.14,2.14,0,0,0-2.13,2.13h0A2.14,2.14,0,0,0,6.21,40H33.79a2.14,2.14,0,0,0,2.13-2.13h0A2.14,2.14,0,0,0,33.79,35.74Z" transform="translate(-4.08)"/></svg>