<svg id="Layer_1" data-name="Layer 1" xmlns="http://www.w3.org/2000/svg" viewBox="0 0 39.79 39.79"><defs><style>.cls-1{fill:#fff;}</style></defs><path class="cls-1" d="M38.85,33.89,28.75,23.78a15.49,15.49,0,1,0-5.07,5.07L33.79,39a3.58,3.58,0,0,0,5.06-5.07ZM15.57,27.73A12.06,12.06,0,1,1,27.63,15.67,12,12,0,0,1,15.57,27.73Z" transform="translate(-0.1 -0.21)"/><path class="cls-1" d="M23.4,15a16.5,16.5,0,0,0-5.94-2.32c-3.56-.58-7.53-.2-7.88,1.66-.1.57.35,1.26,1.26,1.88a8.3,8.3,0,0,0,2.66,1.15,5.54,5.54,0,0,0,3-.05c.35-.14.68-.42.31-.9l0,0a.63.63,0,0,0-.23-.07.44.44,0,0,0-.25,0,1.85,1.85,0,0,1-1,.25,4.6,4.6,0,0,1-1.66-.34l-.05,0,0,0a4,4,0,0,1-.51-.29c-.69-.47-.87-1-.52-1.5v0c.72-.84,3.11-.92,5-.57h0a11.47,11.47,0,0,1,4.13,1.63c2.13,1.46,2.29,3.21.38,4.17h0c-2.4,1.09-6.29,1.16-10.4.18h0l0,0-.71-.21a18.2,18.2,0,0,0,3.54,1.32c5.94,1.56,9.7-.21,10.65-1C26.37,18.53,25.76,16.61,23.4,15Z" transform="translate(-0.1 -0.21)"/><path class="cls-1" d="M21.56,17.76c.11-.58-.35-1.26-1.26-1.88a8.34,8.34,0,0,0-2.65-1.15,5.54,5.54,0,0,0-3,0c-.35.14-.69.42-.32.89l0,0a.62.62,0,0,0,.24.07.4.4,0,0,0,.24,0,1.9,1.9,0,0,1,1.06-.25,4.55,4.55,0,0,1,1.65.34l.05,0,.05,0a3.3,3.3,0,0,1,.5.29c.69.47.88,1,.52,1.5v0c-.71.84-3.1.92-5,.57h0a11.34,11.34,0,0,1-4.12-1.63c-2.14-1.46-2.3-3.21-.38-4.17h0c2.41-1.09,6.3-1.16,10.41-.18h0l0,0,.72.21a18.3,18.3,0,0,0-3.55-1.32c-5.94-1.56-9.69.21-10.65,1-1.4,1.36-.79,3.28,1.56,4.89h0a16.74,16.74,0,0,0,5.95,2.32C17.25,20,21.21,19.62,21.56,17.76Z" transform="translate(-0.1 -0.21)"/><circle class="cls-1" cx="23.69" cy="16.21" r="1.9"/><circle class="cls-1" cx="12.84" cy="10.77" r="1.16"/></svg>