<svg id="Layer_1" data-name="Layer 1" xmlns="http://www.w3.org/2000/svg" viewBox="0 0 35.85 39.79"><defs><style>.cls-1{fill:#fff;}</style></defs><path class="cls-1" d="M35.23,12.13a8,8,0,0,1-8-8v-4H10a8,8,0,0,0-8,8V32a8,8,0,0,0,8,8H30a8,8,0,0,0,8-8V12.13ZM33.71,33.66a1.84,1.84,0,0,1-1.31.54H7.6a1.86,1.86,0,0,1-1.85-1.84A1.84,1.84,0,0,1,7.6,30.51H32.4a1.85,1.85,0,0,1,1.31,3.15Zm0-7.64a1.84,1.84,0,0,1-1.31.55H7.6a1.87,1.87,0,0,1-1.85-1.85A1.84,1.84,0,0,1,7.6,22.88H32.4a1.86,1.86,0,0,1,1.85,1.84A1.84,1.84,0,0,1,33.71,26Zm0-7.63a1.88,1.88,0,0,1-1.31.54H7.6a1.86,1.86,0,0,1-1.85-1.84A1.84,1.84,0,0,1,7.6,15.24H32.4a1.85,1.85,0,0,1,1.31,3.15Z" transform="translate(-2.08 -0.21)"/></svg>